<?xml version="1.0" standalone="no"?>
<!DOCTYPE svg PUBLIC "-//W3C//DTD SVG 20010904//EN"
 "http://www.w3.org/TR/2001/REC-SVG-20010904/DTD/svg10.dtd">
<svg version="1.0" xmlns="http://www.w3.org/2000/svg"
 width="700.000000pt" height="700.000000pt" viewBox="0 0 700.000000 700.000000"
 preserveAspectRatio="xMidYMid meet">
<metadata>
Created by potrace 1.11, written by Peter Selinger 2001-2013
</metadata>
<g transform="translate(0.000000,700.000000) scale(0.100000,-0.100000)"
fill="#000000" stroke="none">
<path d="M2135 5775 c-159 -35 -314 -112 -416 -206 -21 -19 -133 -127 -250
-241 -290 -279 -383 -367 -387 -364 -1 2 -5 25 -8 52 -7 63 -39 132 -77 166
-55 50 -116 66 -246 62 -250 -6 -436 -93 -471 -221 -42 -147 106 -328 342
-418 l66 -26 -197 -197 c-205 -204 -263 -278 -343 -437 -33 -66 -87 -200 -92
-228 -1 -6 -6 -23 -11 -37 -4 -14 -16 -63 -26 -110 -15 -76 -17 -148 -15 -655
2 -552 3 -572 23 -640 36 -117 107 -248 171 -318 26 -27 26 -28 28 -230 1
-223 8 -264 59 -341 53 -84 126 -136 222 -161 68 -18 569 -21 641 -5 71 17
131 50 184 103 77 76 107 155 111 290 l2 52 2055 0 2055 0 2 -67 c5 -167 79
-284 222 -352 l66 -31 288 -3 c298 -3 351 1 430 37 92 42 181 153 203 251 4
19 8 123 9 231 l1 197 32 38 c18 22 37 45 43 52 21 26 88 159 104 207 17 52
20 61 35 135 5 25 9 288 8 585 0 479 -2 550 -18 627 -39 187 -109 360 -214
523 -45 70 -103 135 -257 288 -153 152 -195 199 -182 203 175 55 323 167 375
282 26 57 30 134 12 179 -50 119 -260 202 -500 198 -88 -1 -109 -5 -157 -29
-62 -30 -112 -93 -123 -155 -3 -20 -9 -51 -13 -69 l-6 -33 -102 98 c-56 54
-192 185 -302 292 -111 106 -216 207 -234 223 -56 52 -161 115 -248 151 -169
70 -95 67 -1536 66 -1036 0 -1310 -3 -1358 -14z m2664 -364 c123 -26 220 -83
334 -193 41 -40 188 -183 327 -318 139 -135 291 -282 339 -327 l86 -83 -2384
0 -2384 0 90 88 c50 48 198 191 328 317 380 369 408 396 450 423 79 53 176 91
256 100 102 13 2499 6 2558 -7z m-3967 -1530 c141 -55 331 -156 418 -221 19
-15 62 -46 95 -71 86 -63 188 -172 215 -228 56 -122 -33 -201 -255 -225 -27
-3 -75 -8 -105 -12 -69 -8 -483 -6 -558 2 -286 30 -443 339 -304 593 99 180
292 243 494 162z m5599 23 c135 -40 224 -131 269 -277 16 -50 16 -165 0 -213
-58 -178 -184 -277 -367 -290 -87 -5 -489 -6 -528 0 -16 2 -60 7 -98 10 -37 4
-79 11 -95 17 -15 6 -29 10 -32 10 -3 -1 -27 7 -54 16 -67 25 -109 74 -103
122 3 20 8 45 13 56 8 21 95 133 116 150 7 6 38 31 68 56 169 140 460 302 630
348 54 14 121 13 181 -5z m-1330 -506 c8 -105 -35 -299 -86 -388 -11 -19 -27
-48 -35 -64 -28 -54 -126 -145 -186 -174 l-59 -27 -1235 0 -1235 0 -67 33
c-80 39 -148 110 -200 209 -40 77 -73 169 -82 229 -4 22 -8 49 -10 61 -4 19
-9 109 -7 126 1 4 721 7 1601 7 1273 0 1600 -3 1601 -12z m-3689 -916 c70 -81
137 -158 150 -172 66 -72 208 -239 208 -244 0 -3 -204 -6 -453 -6 -446 0 -455
0 -518 23 -290 102 -398 286 -292 495 l26 52 376 0 376 0 127 -148z m5080 96
c44 -90 50 -126 34 -213 -20 -108 -135 -211 -311 -278 l-70 -27 -459 0 c-266
0 -456 4 -454 9 2 5 28 38 59 72 31 35 109 125 173 199 65 74 144 164 175 199
31 35 60 70 64 77 7 12 77 14 386 14 l378 0 25 -52z m-1520 -148 c-2 -19 -8
-53 -14 -75 -35 -136 -162 -254 -307 -284 -37 -8 -381 -11 -1165 -11 -1189 1
-1146 -1 -1246 50 -83 42 -164 137 -192 223 -6 18 -13 55 -17 82 l-7 50 1476
0 1475 0 -3 -35z"/>
</g>
</svg>
